<svg id="Capa_1" enable-background="new 0 0 512 512" height="512" viewBox="0 0 512 512" width="512" xmlns="http://www.w3.org/2000/svg"><g><circle cx="256" cy="256" fill="#6bcb44" r="256"/><path d="m49.152 256c0-133.093 101.571-242.45 231.424-254.82-8.089-.771-16.285-1.18-24.576-1.18-141.385 0-256 114.615-256 256s114.615 256 256 256c8.291 0 16.487-.409 24.576-1.18-129.853-12.37-231.424-121.727-231.424-254.82z" fill="#4dc321"/><path d="m262.934 31.35c-111.501 14.123-197.721 109.315-197.721 224.65s86.22 210.528 197.722 224.65c120.925-3.666 217.832-102.836 217.832-224.65 0-121.815-96.908-220.985-217.833-224.65z" fill="#dbedff"/><path d="m66.775 256c0-118.154 91.169-215.009 206.996-224.069-5.864-.459-11.789-.698-17.771-.698-124.135.001-224.766 100.632-224.766 224.767s100.631 224.767 224.766 224.767c5.982 0 11.907-.239 17.771-.698-115.828-9.06-206.996-105.915-206.996-224.069z" fill="#b5dcff"/><path d="m354.424 371.895-24.46-153.496 16.028-14.861c-41.158-52.536-69.19-99.333-82.02-122.123-3.5-6.217-12.442-6.223-15.942-.005-14.179 25.188-46.931 79.71-95.457 138.894-59.426 72.478-23.31 182.073 67.708 204.442 23.463 5.766 47.974 5.766 71.438 0l.002-.001c29.05-7.139 52.496-23.173 69.039-44.042z" fill="#8bcaff"/><path d="m276.941 424.745c-91.017-22.369-127.134-131.965-67.708-204.442 32.299-39.393 57.599-76.708 75.096-104.695-8.79-14.06-15.615-25.77-20.357-34.193-3.5-6.217-12.442-6.223-15.942-.005-14.179 25.188-46.931 79.71-95.457 138.894-59.426 72.478-23.31 182.073 67.708 204.442 21.012 5.164 42.861 5.689 64.049 1.604-2.472-.478-4.937-1.003-7.389-1.605z" fill="#60b9fe"/><path d="m423.947 223.778-6.94-4.35-132.677 20.862-42.206 72.837 18.296 46.148 15.179 17.183c.256.158.506.322.763.478 55.644 33.689 127.152-2.37 133.557-67.102 3.37-34.054 9.002-63.932 14.028-86.056z" fill="#97dc7c"/><path d="m272.101 371.066-.001-.001c-33.689-55.643 2.37-127.151 67.102-133.556 33.384-3.303 62.759-8.781 84.746-13.731 2.775-12.217 5.367-22.079 7.289-28.952 1.333-4.769-3.058-9.154-7.826-7.821-19.321 5.403-62.149 16.086-115.005 21.315-64.731 6.405-100.791 77.913-67.102 133.556l.001.002c8.529 14.087 20.289 25.934 34.295 34.58-1.219-1.758-2.388-3.555-3.499-5.392z" fill="#6bcb44"/><path d="m378.934 270.685c-4.935.446-9.912-.476-14.604-2.888-.966-.496-1.158-1.803-.39-2.571l22.855-22.856c3.073-3.073 3.017-8.091-.171-11.092-3.08-2.9-7.994-2.596-10.986.395l-22.627 22.627c-.768.768-2.074.576-2.571-.389-2.418-4.697-3.329-9.703-2.887-14.607.383-4.25-2.751-8.006-7.001-8.389-4.248-.379-8.006 2.751-8.389 7.001-.868 9.622 1.511 19.214 7.445 27.908.439.644.375 1.505-.176 2.056l-19.568 19.568c-.724.725-1.918.587-2.491-.262-5.858-8.691-8.031-17.912-7.261-26.984.352-4.148-2.533-8.036-6.66-8.58-4.386-.578-8.317 2.608-8.711 6.965-1.259 13.943 2.587 27.868 11.867 40.134.487.644.438 1.545-.133 2.116l-19.915 19.915c-.69.691-1.843.621-2.422-.165-8.41-11.428-11.665-23.954-10.551-36.306.383-4.25-2.751-8.006-7.001-8.389-4.255-.379-8.006 2.751-8.389 7.001-1.551 17.196 3.449 34.238 15.163 49.034.509.642.467 1.559-.112 2.139l-49.741 49.741c-3.018 3.017-3.018 7.909 0 10.927 1.509 1.509 3.486 2.263 5.463 2.263s3.955-.755 5.463-2.263l49.741-49.741c.579-.579 1.496-.62 2.139-.112 14.901 11.798 31.965 16.7 49.033 15.162 4.25-.384 7.384-4.14 7-8.39-.383-4.249-4.135-7.377-8.39-7-12.307 1.112-24.839-2.114-36.304-10.55-.787-.579-.856-1.732-.166-2.422l19.915-19.915c.571-.571 1.472-.62 2.116-.133 12.493 9.452 26.454 13.099 40.134 11.867 4.25-.384 7.384-4.14 7.001-8.389-.383-4.25-4.14-7.377-8.389-7.001-9.129.826-18.431-1.324-27.211-7.241-.849-.572-.986-1.767-.262-2.491l19.568-19.568c.551-.551 1.412-.616 2.056-.176 8.657 5.911 18.215 8.317 27.907 7.444 4.25-.384 7.384-4.14 7-8.39-.381-4.252-4.13-7.378-8.387-7.003z" fill="#42ab20"/></g></svg>