<svg id="Capa_1" enable-background="new 0 0 512 512" height="512" viewBox="0 0 512 512" width="512" xmlns="http://www.w3.org/2000/svg"><g><path d="m468.666 216.957c-1.392 0-2.801-.379-4.066-1.175l-42.4-26.671c-3.577-2.25-4.651-6.972-2.402-10.548 2.25-3.577 6.973-4.651 10.548-2.402l42.4 26.671c3.577 2.249 4.651 6.972 2.402 10.548-1.454 2.31-3.94 3.577-6.482 3.577z" fill="#e6989e"/><path d="m180.088 511.112c-41.187-22.107-83.521-45.909-104.271-59.15-1.557-.993-2.686-2.524-3.195-4.311l-64.25-225.637c-.713-2.505-.117-5.219 1.612-7.155 37.677-42.193 85.565-72.919 120.853-88.617 16.417-7.303 34.174-11.006 52.776-11.006 18.603 0 36.359 3.703 52.777 11.006 35.287 15.698 83.174 46.425 120.852 88.617 1.729 1.936 2.325 4.65 1.612 7.155l-64.249 225.637c-.509 1.787-1.638 3.317-3.195 4.311-20.75 13.243-63.086 37.046-104.271 59.15-2.206 1.184-4.845 1.184-7.051 0z" fill="#5392f9"/><path d="m357.242 214.859c-37.677-42.192-85.564-72.919-120.852-88.617-16.418-7.303-34.174-11.006-52.777-11.006-3.908 0-7.777.173-11.606.499 14.35 1.208 28.113 4.639 41.044 10.263 35.287 15.351 83.174 45.398 120.851 86.657 1.729 1.893 2.325 4.547 1.612 6.997l-64.249 220.648c-.509 1.748-1.638 3.244-3.195 4.215-20.743 12.946-63.057 36.211-104.229 57.82 5.401 2.936 10.834 5.871 16.247 8.777 2.206 1.184 4.845 1.184 7.05 0 41.185-22.104 83.521-45.907 104.271-59.15 1.557-.994 2.686-2.524 3.195-4.311l64.249-225.637c.714-2.505.118-5.219-1.611-7.155z" fill="#4071f7"/><path d="m307.551 230.862-53.882 189.237c-17.074 10.209-42.194 24.407-70.059 39.583-27.854-15.177-52.975-29.374-70.048-39.583l-53.893-189.237c26.056-25.115 55.531-44.462 79.087-56.431 2.731-1.388 6.093-.71 7.974 1.708 8.539 10.98 21.88 18.046 36.88 18.046 15.001 0 28.343-7.066 36.888-18.048 1.881-2.417 5.243-3.094 7.974-1.706 23.556 11.977 53.032 31.316 79.079 56.431z" fill="#ddebfd"/><path d="m240.149 282.498h-31.734c-1.212 0-2.194-.982-2.194-2.194v-31.734c0-1.817-1.473-3.291-3.291-3.291h-32.298c-1.817 0-3.291 1.473-3.291 3.291v31.734c0 1.212-.982 2.194-2.194 2.194h-31.734c-1.817 0-3.291 1.473-3.291 3.291v32.298c0 1.817 1.473 3.291 3.291 3.291h31.734c1.212 0 2.194.982 2.194 2.194v31.734c0 1.817 1.473 3.291 3.291 3.291h32.298c1.817 0 3.291-1.473 3.291-3.291v-31.734c0-1.212.982-2.194 2.194-2.194h31.734c1.817 0 3.291-1.473 3.291-3.291v-32.298c0-1.818-1.473-3.291-3.291-3.291z" fill="#df646e"/><path d="m387.204 250.79c-3.49 0-6.642-2.404-7.451-5.951l-6.437-28.243c-.939-4.119 1.639-8.219 5.758-9.158 4.125-.94 8.219 1.639 9.158 5.758l6.437 28.243c.939 4.119-1.639 8.219-5.758 9.158-.572.131-1.144.193-1.707.193z" fill="#e6989e"/><path d="m302.906 112.711c-1.391 0-2.8-.379-4.065-1.174l-24.528-15.42c-3.576-2.249-4.652-6.971-2.404-10.547 2.248-3.577 6.971-4.653 10.548-2.405l24.528 15.42c3.576 2.249 4.652 6.971 2.404 10.547-1.453 2.312-3.94 3.579-6.483 3.579z" fill="#e6989e"/><path d="m252.951 176.936c-3.491 0-6.644-2.405-7.452-5.953-.938-4.119 1.641-8.219 5.76-9.157l40.582-9.241c4.119-.936 8.219 1.64 9.156 5.76.938 4.119-1.64 8.219-5.76 9.157l-40.582 9.241c-.57.131-1.142.193-1.704.193z" fill="#e6989e"/><path d="m435.629 135.313c-3.491 0-6.643-2.405-7.451-5.952-.938-4.119 1.64-8.219 5.759-9.157l26.189-5.965c4.121-.938 8.219 1.64 9.157 5.759s-1.64 8.219-5.759 9.157l-26.189 5.965c-.572.131-1.143.193-1.706.193z" fill="#e6989e"/><path d="m403.369 89.824c-1.392 0-2.801-.379-4.066-1.176-3.577-2.25-4.651-6.972-2.402-10.548l15.429-24.527c2.251-3.577 6.973-4.652 10.548-2.401 3.577 2.25 4.651 6.972 2.402 10.548l-15.429 24.527c-1.454 2.311-3.94 3.577-6.482 3.577z" fill="#e6989e"/><path d="m296.838 136.916c-.192 2.782-4.2 8.595-5.034 10.17 1.578 36.548 30.403 66.862 67.762 69.445 14.858 1.027 28.983-2.476 41.023-9.332 9.756-14.745 24.665-36.151 36.559-56.774.046-.514.087-1.03.123-1.547 2.776-40.14-27.514-74.929-67.653-77.705-32.007-2.213-60.612 16.597-72.297 44.661-1.171 7.123.079 12.949-.483 21.082z" fill="#df646e"/><path d="m369.617 71.173c-3.51-.243-6.976-.218-10.387.03 32.775 8.984 55.779 40.069 53.345 75.275-2.533 36.629-31.729 65.041-67.318 67.624 4.593 1.259 9.375 2.089 14.308 2.43 14.896 1.03 29.055-2.493 41.114-9.384 9.151-13.796 27.735-38.92 36.467-56.722.046-.514.087-1.03.123-1.547 2.777-40.14-27.513-74.93-67.652-77.706z" fill="#cd5668"/><path d="m369.42 168.11c-1.336 19.315 12.441 36.175 31.249 39.033 20.022-11.438 34.241-32.154 36.456-56.725-6.116-9.313-16.354-15.765-28.326-16.593-20.342-1.407-37.972 13.943-39.379 34.285z" fill="#ffa95f"/><path d="m412.391 134.263c.392 3.996.47 8.075.183 12.214-1.521 21.999-12.667 41.025-29.033 53.28 4.852 3.791 10.705 6.412 17.138 7.389 17.186-9.818 29.72-26.251 34.543-45.484.005-.021.011-.042.016-.063.904-3.619 1.564-7.349 1.909-11.175-5.493-8.364-14.341-14.415-24.756-16.161z" fill="#ff8b5a"/><path d="m291.804 147.086c3.715 5.144 9.604 8.663 16.429 9.135 12.197.843 22.768-8.36 23.612-20.557.843-12.197-8.36-22.768-20.557-23.612-5.148-.356-10.007 1.088-13.966 3.781-2.971 7.133-4.856 14.858-5.419 22.993-.194 2.783-.217 5.537-.099 8.26z" fill="#ffa95f"/><path d="m353.688 103.675c-3.49 0-6.642-2.404-7.451-5.951l-10.125-44.418c-.939-4.119 1.639-8.22 5.758-9.158 4.117-.942 8.219 1.639 9.158 5.758l10.125 44.418c.939 4.119-1.639 8.22-5.758 9.158-.571.131-1.144.193-1.707.193z" fill="#e6989e"/><path d="m312.853 233.764c-1.392 0-2.8-.379-4.066-1.175-3.576-2.249-4.651-6.971-2.402-10.547l24.854-39.52c2.249-3.578 6.971-4.652 10.548-2.403 3.576 2.249 4.651 6.971 2.402 10.547l-24.854 39.52c-1.453 2.311-3.941 3.578-6.482 3.578z" fill="#e6989e"/><g fill="#407194"><path d="m282.702 92.355c3.047-4.844 4.025-10.584 2.754-16.163s-4.638-10.329-9.482-13.376c-4.845-3.046-10.586-4.024-16.163-2.752-5.579 1.271-10.33 4.638-13.376 9.483-6.288 10-3.268 23.251 6.731 29.539 3.459 2.175 7.374 3.295 11.362 3.295 1.597 0 3.205-.179 4.801-.543 5.577-1.271 10.327-4.639 13.373-9.483z"/><path d="m232.287 152.025c-11.517 2.625-18.752 14.13-16.128 25.646 2.261 9.922 11.112 16.665 20.885 16.665 1.571 0 3.167-.174 4.762-.538 5.579-1.271 10.329-4.639 13.375-9.484 3.046-4.844 4.022-10.584 2.751-16.163-2.624-11.513-14.124-18.752-25.645-16.126z"/><path d="m402.243 240.92c-4.846-3.047-10.587-4.025-16.164-2.753-11.516 2.624-18.751 14.129-16.127 25.647 2.26 9.922 11.113 16.666 20.886 16.666 1.572 0 3.166-.174 4.762-.538 11.517-2.625 18.751-14.13 16.127-25.646-1.272-5.579-4.639-10.329-9.484-13.376z"/><path d="m503.38 213.237c-1.272-5.579-4.639-10.329-9.483-13.375-4.845-3.047-10.588-4.023-16.164-2.753-5.58 1.271-10.331 4.639-13.377 9.483-6.288 9.999-3.267 23.25 6.732 29.539 3.534 2.222 7.474 3.282 11.369 3.282 7.126 0 14.105-3.548 18.17-10.012 3.047-4.844 4.024-10.585 2.753-16.164z"/><path d="m477.736 139.497c1.571 0 3.165-.174 4.76-.538 11.517-2.624 18.752-14.129 16.129-25.646-2.625-11.517-14.137-18.753-25.646-16.128-5.58 1.271-10.329 4.638-13.375 9.483-3.046 4.843-4.022 10.583-2.751 16.162 2.261 9.923 11.113 16.667 20.883 16.667z"/><path d="m438.896 25.695c-9.996-6.285-23.25-3.268-29.538 6.731-3.047 4.844-4.024 10.584-2.752 16.163 1.272 5.578 4.64 10.328 9.484 13.374 3.459 2.176 7.376 3.296 11.364 3.296 1.596 0 3.204-.179 4.798-.542 5.579-1.271 10.329-4.638 13.375-9.482 6.288-9.999 3.269-23.25-6.731-29.54z"/><path d="m331.979.72c-15.4 3.508-25.075 18.892-21.566 34.292 3.024 13.268 14.859 22.285 27.926 22.285 2.099 0 4.232-.233 6.365-.719 15.4-3.509 25.076-18.893 21.568-34.293-3.51-15.401-18.896-25.076-34.293-21.565z"/><path d="m315.575 221.796c-12.178-7.656-28.309-3.981-35.963 8.193-7.655 12.175-3.979 28.308 8.194 35.964 4.304 2.706 9.1 3.996 13.843 3.996 8.676 0 17.171-4.319 22.122-12.19 7.653-12.174 3.977-28.307-8.196-35.963z"/></g></g></svg>